<svg width="53" height="53" viewBox="0 0 53 53" fill="none" xmlns="http://www.w3.org/2000/svg">
<g id="Group 7">
<circle id="Ellipse 2" cx="26.5" cy="26.5" r="26.5" fill="#A4C8FF"/>
<path id="Vector" d="M29.7212 16.0068V31.0068H14.7212V16.0068H29.7212ZM14.7212 11.7211C13.0665 11.7211 11.7212 13.643 11.7212 16.0068V31.0068C11.7212 33.3707 13.0665 35.2926 14.7212 35.2926H20.2196L19.718 37.4354H16.2212C15.3915 37.4354 14.7212 38.393 14.7212 39.5783C14.7212 40.7635 15.3915 41.7211 16.2212 41.7211H28.2212C29.0508 41.7211 29.7212 40.7635 29.7212 39.5783C29.7212 38.393 29.0508 37.4354 28.2212 37.4354H24.7196L24.218 35.2926H29.7212C31.3758 35.2926 32.7212 33.3707 32.7212 31.0068V16.0068C32.7212 13.643 31.3758 11.7211 29.7212 11.7211H14.7212ZM36.4712 11.7211C35.229 11.7211 34.2212 13.1609 34.2212 14.9354V38.5068C34.2212 40.2814 35.229 41.7211 36.4712 41.7211H39.4712C40.7133 41.7211 41.7212 40.2814 41.7212 38.5068V14.9354C41.7212 13.1609 40.7133 11.7211 39.4712 11.7211H36.4712ZM37.2212 16.0068H38.7212C39.1337 16.0068 39.4712 16.489 39.4712 17.0783C39.4712 17.6676 39.1337 18.1497 38.7212 18.1497H37.2212C36.8087 18.1497 36.4712 17.6676 36.4712 17.0783C36.4712 16.489 36.8087 16.0068 37.2212 16.0068ZM36.4712 21.364C36.4712 20.7747 36.8087 20.2926 37.2212 20.2926H38.7212C39.1337 20.2926 39.4712 20.7747 39.4712 21.364C39.4712 21.9533 39.1337 22.4354 38.7212 22.4354H37.2212C36.8087 22.4354 36.4712 21.9533 36.4712 21.364ZM37.9712 32.0783C38.369 32.0783 38.7505 32.304 39.0318 32.7059C39.3131 33.1078 39.4712 33.6528 39.4712 34.2211C39.4712 34.7895 39.3131 35.3345 39.0318 35.7364C38.7505 36.1382 38.369 36.364 37.9712 36.364C37.5733 36.364 37.1918 36.1382 36.9105 35.7364C36.6292 35.3345 36.4712 34.7895 36.4712 34.2211C36.4712 33.6528 36.6292 33.1078 36.9105 32.7059C37.1918 32.304 37.5733 32.0783 37.9712 32.0783Z" fill="black"/>
</g>
</svg>
