<svg width="53" height="53" viewBox="0 0 53 53" fill="none" xmlns="http://www.w3.org/2000/svg">
<g id="Group 12">
<g id="Group 9">
<circle id="Ellipse 2" cx="26.5" cy="26.5" r="26.5" fill="#A4C8FF"/>
</g>
<path id="Vector" d="M25.5544 19.6329C25.8934 19.2551 26.0271 18.6615 25.8504 18.1339C25.7406 17.8161 25.6212 17.5043 25.4876 17.2045L25.3395 16.8807C25.1963 16.5809 25.0388 16.2871 24.8716 16.0053C24.5995 15.5496 24.122 15.3997 23.6923 15.5796L22.3459 16.1372C21.835 15.6096 21.2478 15.1779 20.6175 14.8841L20.3263 13.1452C20.2356 12.5876 19.8918 12.1439 19.443 12.0779C19.1279 12.024 18.808 12 18.4833 12H18.4499C18.1252 12 17.8053 12.024 17.4902 12.072C17.0414 12.1379 16.6977 12.5876 16.6069 13.1392L16.3157 14.8841C15.6807 15.1839 15.0982 15.6096 14.5873 16.1372L13.2361 15.5856C12.8064 15.4057 12.329 15.5556 12.0568 16.0113C11.8897 16.2931 11.7321 16.5869 11.5841 16.8867L11.4409 17.2045C11.3072 17.5043 11.1878 17.8161 11.078 18.1399C10.9014 18.6615 11.0351 19.2551 11.3741 19.6389L12.434 20.8261C12.3815 21.2278 12.3528 21.6475 12.3528 22.0733C12.3528 22.499 12.3815 22.9187 12.434 23.3264L11.3741 24.5136C11.0351 24.8914 10.9014 25.485 11.078 26.0126C11.1878 26.3304 11.3072 26.6422 11.4409 26.948L11.5841 27.2598C11.7274 27.5656 11.8849 27.8534 12.0568 28.1352C12.329 28.5909 12.8064 28.7408 13.2361 28.5609L14.5825 28.0033C15.0934 28.5309 15.6807 28.9627 16.3109 29.2565L16.6022 31.0013C16.6929 31.5589 17.0366 32.0026 17.4855 32.0686C17.8053 32.1165 18.13 32.1405 18.4595 32.1405C18.7889 32.1405 19.1136 32.1165 19.4335 32.0686C19.8823 32.0026 20.226 31.5529 20.3167 31.0013L20.608 29.2565C21.243 28.9567 21.8255 28.5309 22.3364 28.0033L23.6828 28.5609C24.1125 28.7408 24.5899 28.5909 24.8621 28.1352C25.0292 27.8534 25.1868 27.5656 25.33 27.2598L25.478 26.936C25.6117 26.6362 25.7311 26.3244 25.8409 26.0066C26.0175 25.485 25.8838 24.8914 25.5449 24.5076L24.4849 23.3204C24.5374 22.9127 24.5661 22.493 24.5661 22.0673C24.5661 21.6416 24.5374 21.2218 24.4849 20.8141L25.5449 19.6269L25.5544 19.6329ZM16.1725 22.0733C16.1725 21.3099 16.4139 20.5779 16.8437 20.0382C17.2735 19.4984 17.8564 19.1952 18.4642 19.1952C19.072 19.1952 19.655 19.4984 20.0848 20.0382C20.5145 20.5779 20.756 21.3099 20.756 22.0733C20.756 22.8366 20.5145 23.5686 20.0848 24.1084C19.655 24.6481 19.072 24.9513 18.4642 24.9513C17.8564 24.9513 17.2735 24.6481 16.8437 24.1084C16.4139 23.5686 16.1725 22.8366 16.1725 22.0733ZM34.922 41.5302C35.2228 41.956 35.6955 42.1239 36.1157 41.902C36.3687 41.7641 36.617 41.6142 36.8557 41.4463L37.1135 41.2604C37.3523 41.0805 37.5862 40.8827 37.8106 40.6728C38.1735 40.3311 38.2928 39.7315 38.1496 39.1918L37.7056 37.5009C38.1257 36.8594 38.4695 36.1219 38.7035 35.3304L40.0928 34.9646C40.5369 34.8507 40.8902 34.419 40.9427 33.8554C40.9809 33.4537 41 33.0459 41 32.6322C41 32.2185 40.9809 31.8108 40.9427 31.409C40.8902 30.8454 40.5321 30.4137 40.0928 30.2998L38.7035 29.928C38.4647 29.1305 38.1257 28.399 37.7056 27.7575L38.1496 26.0666C38.2928 25.527 38.1735 24.9274 37.8106 24.5856C37.5862 24.3757 37.3523 24.1779 37.1135 23.992L36.8605 23.8121C36.6218 23.6442 36.3735 23.4943 36.1157 23.3564C35.7003 23.1346 35.2276 23.3024 34.922 23.7282L33.9767 25.0593C33.652 24.9933 33.3178 24.9573 32.9788 24.9573C32.6398 24.9573 32.3056 24.9933 31.9809 25.0593L31.0356 23.7282C30.7348 23.3024 30.2621 23.1346 29.8419 23.3564C29.5889 23.4943 29.3406 23.6442 29.0971 23.8121L28.8488 23.992C28.6053 24.1719 28.3761 24.3697 28.1517 24.5856C27.7889 24.9274 27.6695 25.527 27.8128 26.0666L28.2568 27.7575C27.8366 28.399 27.4929 29.1365 27.2589 29.928L25.8695 30.2878C25.4255 30.4017 25.0722 30.8334 25.0197 31.397C24.9815 31.7988 24.9624 32.2065 24.9624 32.6202C24.9624 33.0339 24.9815 33.4417 25.0197 33.8434C25.0722 34.407 25.4303 34.8387 25.8695 34.9526L27.2589 35.3184C27.4976 36.1159 27.8366 36.8474 28.2568 37.489L27.8128 39.1798C27.6695 39.7195 27.7889 40.3191 28.1517 40.6608C28.3761 40.8707 28.6053 41.0686 28.8488 41.2484L29.1067 41.4343C29.3454 41.6022 29.5937 41.7521 29.8467 41.89C30.2621 42.1119 30.7348 41.944 31.0403 41.5183L31.9857 40.1871C32.3104 40.2531 32.6446 40.2891 32.9836 40.2891C33.3226 40.2891 33.6568 40.2531 33.9814 40.1871L34.9268 41.5183L34.922 41.5302ZM32.9788 29.7481C33.2798 29.7481 33.5778 29.8226 33.8558 29.9672C34.1339 30.1118 34.3865 30.3238 34.5993 30.5911C34.8121 30.8584 34.9809 31.1756 35.0961 31.5248C35.2113 31.874 35.2706 32.2482 35.2706 32.6262C35.2706 33.0042 35.2113 33.3784 35.0961 33.7276C34.9809 34.0768 34.8121 34.3941 34.5993 34.6613C34.3865 34.9286 34.1339 35.1406 33.8558 35.2852C33.5778 35.4298 33.2798 35.5043 32.9788 35.5043C32.6778 35.5043 32.3798 35.4298 32.1018 35.2852C31.8237 35.1406 31.5711 34.9286 31.3583 34.6613C31.1455 34.3941 30.9766 34.0768 30.8615 33.7276C30.7463 33.3784 30.687 33.0042 30.687 32.6262C30.687 32.2482 30.7463 31.874 30.8615 31.5248C30.9766 31.1756 31.1455 30.8584 31.3583 30.5911C31.5711 30.3238 31.8237 30.1118 32.1018 29.9672C32.3798 29.8226 32.6778 29.7481 32.9788 29.7481Z" fill="black"/>
</g>
</svg>
