<svg width="53" height="53" viewBox="0 0 53 53" fill="none" xmlns="http://www.w3.org/2000/svg">
<g id="Group 11">
<g id="Group 8">
<circle id="Ellipse 2" cx="26.5" cy="26.5" r="26.5" fill="#A4C8FF"/>
</g>
<path id="Vector" d="M31.625 27C31.625 28.3008 31.5547 29.5547 31.4316 30.75H20.5684C20.4395 29.5547 20.375 28.3008 20.375 27C20.375 25.6992 20.4453 24.4453 20.5684 23.25H31.4316C31.5605 24.4453 31.625 25.6992 31.625 27ZM33.3125 23.25H40.5254C40.8359 24.4512 41 25.7051 41 27C41 28.2949 40.8359 29.5488 40.5254 30.75H33.3125C33.4355 29.543 33.5 28.2891 33.5 27C33.5 25.7109 33.4355 24.457 33.3125 23.25ZM39.9102 21.375H33.0723C32.4863 17.6309 31.3262 14.4961 29.832 12.4922C34.4199 13.7051 38.1523 17.0332 39.9043 21.375H39.9102ZM31.1738 21.375H20.8262C21.1836 19.2422 21.7344 17.3555 22.4082 15.8262C23.0234 14.4434 23.709 13.4414 24.3711 12.8086C25.0273 12.1875 25.5723 12 26 12C26.4277 12 26.9727 12.1875 27.6289 12.8086C28.291 13.4414 28.9766 14.4434 29.5918 15.8262C30.2715 17.3496 30.8164 19.2363 31.1738 21.375ZM18.9277 21.375H12.0898C13.8477 17.0332 17.5742 13.7051 22.168 12.4922C20.6738 14.4961 19.5137 17.6309 18.9277 21.375ZM11.4746 23.25H18.6875C18.5645 24.457 18.5 25.7109 18.5 27C18.5 28.2891 18.5645 29.543 18.6875 30.75H11.4746C11.1641 29.5488 11 28.2949 11 27C11 25.7051 11.1641 24.4512 11.4746 23.25ZM22.4082 38.168C21.7285 36.6445 21.1836 34.7578 20.8262 32.625H31.1738C30.8164 34.7578 30.2656 36.6445 29.5918 38.168C28.9766 39.5508 28.291 40.5527 27.6289 41.1855C26.9727 41.8125 26.4277 42 26 42C25.5723 42 25.0273 41.8125 24.3711 41.1914C23.709 40.5586 23.0234 39.5566 22.4082 38.1738V38.168ZM18.9277 32.625C19.5137 36.3691 20.6738 39.5039 22.168 41.5078C17.5742 40.2949 13.8477 36.9668 12.0898 32.625H18.9277ZM39.9102 32.625C38.1523 36.9668 34.4258 40.2949 29.8379 41.5078C31.332 39.5039 32.4863 36.3691 33.0781 32.625H39.9102Z" fill="black"/>
</g>
</svg>
